<svg width="481" height="239" viewBox="0 0 481 239" fill="none" xmlns="http://www.w3.org/2000/svg">
<g clip-path="url(#clip0_451_32)">
<path fill-rule="evenodd" clip-rule="evenodd" d="M18.7238 177.509C17.8425 178.39 17.3936 179.42 17.3936 180.601C17.3936 181.781 17.8425 182.812 18.7238 183.693L28.7509 193.634C30.4803 195.363 32.5422 196.21 34.9368 196.21H68.4601C68.8758 196.21 69.1585 196.393 69.2749 196.759C69.4079 197.125 69.3414 197.441 69.0754 197.707L63.7542 203.026C63.0724 203.708 62.2576 204.04 61.3264 204.04H20.7525C18.7737 204.04 16.8614 203.658 15.0323 202.91C13.2031 202.145 11.6068 201.065 10.2599 199.652L3.05967 192.52C2.06195 191.473 1.31366 190.309 0.781546 189.029C0.266058 187.749 0 186.452 0 185.106C0 183.759 0.266058 182.463 0.781546 181.149C1.29703 179.836 2.06195 178.672 3.05967 177.625L11.5236 169.247C12.9371 167.834 14.5334 166.753 16.346 165.988C18.1418 165.224 20.0375 164.858 22.0329 164.858H61.2765C62.2742 164.858 63.1057 165.19 63.7875 165.872L69.1086 171.192C69.3747 171.458 69.4412 171.774 69.3082 172.139C69.1751 172.505 68.9091 172.688 68.4934 172.688L25.5582 172.771C24.1448 172.771 22.9475 173.27 21.9498 174.267L18.7405 177.475L18.7238 177.509Z" fill="white"/>
<path fill-rule="evenodd" clip-rule="evenodd" d="M144.685 164.891C145.267 164.891 145.766 165.107 146.215 165.556C146.664 166.005 146.88 166.504 146.88 167.086V187.766C146.88 189.494 146.548 191.157 145.866 192.786C145.184 194.398 144.253 195.811 143.039 197.008L139.83 200.217C138.632 201.414 137.219 202.361 135.606 203.043C133.993 203.724 132.313 204.057 130.584 204.057H92.8205C91.0911 204.057 89.4282 203.724 87.7986 203.043C86.1857 202.361 84.7722 201.43 83.575 200.217L80.3656 197.008C79.1684 195.811 78.2205 194.398 77.5388 192.786C76.857 191.173 76.5244 189.494 76.5244 187.766V167.086C76.5244 166.504 76.7406 166.005 77.1896 165.556C77.6385 165.107 78.1374 164.891 78.7194 164.891H90.8583C91.4902 164.891 92.0057 165.107 92.4214 165.556C92.8371 166.005 93.0533 166.504 93.0533 167.086V190.508C93.0533 191.755 93.5023 192.786 94.3836 193.567L95.7139 194.98C96.5453 195.811 97.5596 196.227 98.7735 196.227H124.631C125.828 196.227 126.843 195.811 127.691 194.98L129.021 193.567C129.902 192.786 130.351 191.772 130.351 190.508V167.086C130.351 166.504 130.567 166.005 130.983 165.556C131.399 165.107 131.931 164.891 132.546 164.891H144.685Z" fill="white"/>
<path fill-rule="evenodd" clip-rule="evenodd" d="M200.858 178.207C201.49 177.625 201.49 177.027 200.858 176.412L198.281 173.835C197.549 173.103 196.668 172.738 195.62 172.738H173.77C173.504 172.738 173.288 172.837 173.105 173.004C172.922 173.186 172.839 173.403 172.839 173.669V195.279C172.839 195.545 172.939 195.762 173.105 195.944C173.288 196.127 173.504 196.21 173.77 196.21H204.799C205.431 196.21 205.98 195.978 206.445 195.512L207.776 194.182C208.141 193.866 208.324 193.484 208.324 193.002C208.324 192.52 208.141 192.138 207.776 191.822L205.431 189.478C204.699 188.746 203.785 188.381 202.687 188.381H189.833C188.786 188.381 187.954 188.015 187.322 187.283L182.001 182.03C181.735 181.764 181.669 181.449 181.802 181.083C181.935 180.717 182.201 180.534 182.616 180.534H197.183C198.131 180.534 198.929 180.202 199.611 179.52L200.858 178.19V178.207ZM223.107 200.998C221.078 203.026 218.584 204.057 215.658 204.057H158.472C157.89 204.057 157.391 203.841 156.942 203.392C156.493 202.943 156.277 202.444 156.277 201.863V167.086C156.277 166.504 156.493 166.005 156.942 165.556C157.391 165.107 157.89 164.891 158.472 164.891H207.36C210.12 164.891 212.481 165.855 214.41 167.784L216.373 169.745C217.204 170.626 217.62 171.657 217.62 172.804C217.62 173.951 217.204 174.965 216.373 175.863L211.667 180.567H214.56C217.32 180.567 219.682 181.532 221.611 183.46L226.001 187.849C227.414 189.312 228.112 191.04 228.112 193.019C228.112 194.997 227.381 196.726 225.917 198.189L223.091 201.015L223.107 200.998Z" fill="white"/>
<path fill-rule="evenodd" clip-rule="evenodd" d="M252.805 188.397C252.123 188.397 251.79 188.713 251.79 189.345V195.213C251.79 195.845 252.123 196.161 252.805 196.161H298.001C298.417 196.161 298.7 196.36 298.816 196.743C298.949 197.142 298.882 197.457 298.616 197.723L293.062 203.209C292.597 203.725 291.965 203.991 291.183 203.991L237.44 204.074C236.858 204.074 236.359 203.858 235.91 203.409C235.461 202.96 235.245 202.461 235.245 201.879V167.102C235.245 166.521 235.461 166.022 235.91 165.573C236.359 165.124 236.858 164.908 237.44 164.908H291.267C291.998 164.908 292.63 165.174 293.146 165.689L298.7 171.175C298.966 171.441 299.032 171.757 298.899 172.156C298.766 172.555 298.5 172.738 298.084 172.738H252.805C252.123 172.738 251.79 173.054 251.79 173.685V179.554C251.79 180.185 252.123 180.501 252.805 180.501H279.36C279.776 180.501 280.059 180.684 280.175 181.05C280.308 181.416 280.242 181.731 279.976 181.997L274.422 187.633C273.906 188.098 273.274 188.331 272.543 188.331L252.805 188.414V188.397Z" fill="white"/>
<path fill-rule="evenodd" clip-rule="evenodd" d="M338.826 204.057C337.313 204.057 335.817 203.891 334.353 203.542C332.89 203.209 331.41 202.278 329.88 200.765L320.485 191.373C319.171 190.06 317.841 188.713 316.444 187.3C315.064 185.887 313.7 184.524 312.37 183.194C311.04 181.864 309.743 180.567 308.496 179.321L305.12 175.946C304.239 175.065 303.79 174.001 303.79 172.771C303.79 171.541 304.239 170.493 305.12 169.596L307.697 166.936C308.379 166.304 309.144 165.806 310.009 165.44C310.874 165.074 311.772 164.891 312.719 164.891H338.178C338.593 164.891 338.876 165.074 338.993 165.44C339.126 165.806 339.059 166.121 338.793 166.387L333.472 171.79C332.69 172.472 331.859 172.804 330.961 172.804H326.189C325.773 172.804 325.49 172.987 325.374 173.353C325.241 173.718 325.307 174.034 325.573 174.3L342.102 190.824C342.568 191.19 342.983 191.373 343.349 191.373C343.815 191.373 344.231 191.19 344.596 190.824L369.506 165.922C370.288 165.24 371.119 164.908 372.017 164.908H381.495C381.911 164.908 382.194 165.091 382.31 165.456C382.443 165.822 382.377 166.138 382.111 166.404L347.723 200.782C346.209 202.295 344.713 203.226 343.25 203.558C341.786 203.891 340.306 204.073 338.776 204.073L338.826 204.057Z" fill="white"/>
<path fill-rule="evenodd" clip-rule="evenodd" d="M388.727 167.086C388.727 166.504 388.943 166.005 389.392 165.556C389.841 165.107 390.34 164.891 390.922 164.891H403.061C403.693 164.891 404.208 165.107 404.624 165.556C405.04 166.005 405.256 166.504 405.256 167.086V201.863C405.256 202.444 405.04 202.943 404.624 203.392C404.208 203.841 403.676 204.057 403.061 204.057H390.922C390.34 204.057 389.841 203.841 389.392 203.392C388.943 202.943 388.727 202.444 388.727 201.863V167.086Z" fill="white"/>
<path fill-rule="evenodd" clip-rule="evenodd" d="M418.876 169.214C420.29 167.85 421.886 166.803 423.699 166.038C425.495 165.274 427.39 164.908 429.386 164.908H465.586C466.468 164.908 467.316 165.241 468.097 165.922L473.352 171.242C473.668 171.508 473.751 171.824 473.618 172.223C473.485 172.622 473.219 172.804 472.803 172.804H433.011C432.179 172.804 431.514 173.07 431.049 173.586L430.034 174.6C429.569 175.065 429.569 175.564 430.034 176.096L433.244 179.304C434.191 180.135 435.222 180.551 436.37 180.551H470.059C472.67 180.551 474.965 181.499 476.96 183.377L478.922 185.405C479.654 186.087 480.186 186.851 480.535 187.716C480.868 188.58 481.051 189.461 481.051 190.376C481.051 191.29 480.885 192.171 480.535 193.036C480.203 193.9 479.654 194.698 478.922 195.429L474.532 199.818C471.706 202.644 468.313 204.04 464.356 204.04H413.821C413.406 204.04 413.123 203.858 413.007 203.492C412.874 203.126 412.94 202.81 413.206 202.544L418.461 197.225C419.242 196.543 420.074 196.211 420.972 196.211H460.448C461.23 196.211 461.878 195.945 462.41 195.429L463.425 194.332C463.94 193.867 463.94 193.368 463.425 192.836L460.215 189.628C459.384 188.796 458.353 188.381 457.156 188.381H423.233C421.919 188.381 420.672 188.132 419.475 187.633C418.278 187.134 417.23 186.419 416.349 185.472L414.553 183.676C413.871 182.995 413.356 182.213 412.99 181.332C412.624 180.451 412.441 179.554 412.441 178.673C412.441 177.792 412.624 176.894 412.99 176.013C413.356 175.132 413.871 174.334 414.553 173.669L418.943 169.197L418.876 169.214Z" fill="white"/>
<path fill-rule="evenodd" clip-rule="evenodd" d="M158.471 223.258H171.823V225.967H166.502V239H163.792V225.967H158.471V223.258Z" fill="white"/>
<path fill-rule="evenodd" clip-rule="evenodd" d="M176.929 223.258H186.69V225.984H178.276V229.758H184.595V232.5H178.276V236.274H186.69V239H176.929C176.547 239 176.214 238.867 175.948 238.601C175.682 238.335 175.549 238.003 175.549 237.637V224.637C175.549 224.255 175.682 223.923 175.948 223.657C176.214 223.391 176.53 223.258 176.929 223.258Z" fill="white"/>
<path fill-rule="evenodd" clip-rule="evenodd" d="M270.115 235.825C271.03 235.459 271.761 234.878 272.327 234.08C272.892 233.282 273.175 232.284 273.175 231.121C273.175 230.323 273.042 229.608 272.759 228.96C272.476 228.311 272.11 227.796 271.661 227.38C271.213 226.981 270.697 226.649 270.115 226.416C269.417 226.15 268.668 226.017 267.87 226.017C267.072 226.017 266.34 226.15 265.659 226.416C264.744 226.782 264.012 227.364 263.447 228.162C262.882 228.96 262.599 229.957 262.599 231.121C262.599 232.284 262.882 233.282 263.447 234.08C264.012 234.878 264.744 235.459 265.659 235.825C266.357 236.091 267.105 236.224 267.887 236.224C268.668 236.224 269.417 236.091 270.115 235.825ZM271.096 223.873C272.526 224.438 273.674 225.352 274.555 226.582C275.436 227.812 275.885 229.325 275.885 231.121C275.885 232.916 275.436 234.412 274.555 235.659C273.674 236.889 272.51 237.803 271.096 238.369C270.082 238.751 269.001 238.95 267.87 238.95C266.739 238.95 265.675 238.751 264.644 238.369C263.214 237.803 262.067 236.889 261.185 235.659C260.304 234.429 259.855 232.916 259.855 231.121C259.855 229.325 260.304 227.829 261.185 226.582C262.067 225.352 263.231 224.438 264.644 223.873C265.659 223.49 266.739 223.291 267.87 223.291C269.001 223.291 270.065 223.49 271.096 223.873Z" fill="white"/>
<path fill-rule="evenodd" clip-rule="evenodd" d="M286.928 223.257H294.328V225.984H286.928C285.864 225.984 284.966 226.25 284.234 226.798C283.502 227.347 282.97 228.062 282.638 228.943C282.388 229.624 282.255 230.339 282.255 231.12C282.255 231.902 282.388 232.633 282.638 233.298C282.97 234.179 283.502 234.894 284.234 235.443C284.966 235.991 285.864 236.257 286.928 236.257H291.6V232.484H285.548V229.741H292.947C293.33 229.741 293.646 229.874 293.912 230.14C294.178 230.406 294.311 230.738 294.311 231.104V237.604C294.311 237.986 294.178 238.302 293.912 238.568C293.646 238.834 293.313 238.967 292.947 238.967H286.911C285.215 238.967 283.785 238.535 282.621 237.67C281.457 236.806 280.609 235.659 280.06 234.246C279.678 233.248 279.495 232.184 279.495 231.104C279.495 230.023 279.678 228.959 280.06 227.962C280.592 226.549 281.457 225.418 282.621 224.537C283.785 223.673 285.215 223.241 286.911 223.241L286.928 223.257Z" fill="white"/>
<path d="M301.925 223.258H299.198V239H301.925V223.258Z" fill="white"/>
<path fill-rule="evenodd" clip-rule="evenodd" d="M311.855 233.016H317.758L314.814 227.497L311.871 233.016H311.855ZM305.602 239L313.617 223.972C313.8 223.64 314.066 223.424 314.432 223.324C314.798 223.224 315.13 223.241 315.463 223.407C315.696 223.54 315.895 223.74 316.028 223.989C320.668 232.667 323.328 237.67 324.01 239H320.95L319.221 235.742H310.424L308.695 239H305.619H305.602Z" fill="white"/>
<path fill-rule="evenodd" clip-rule="evenodd" d="M201.889 234.346L204.266 235.725C203.435 236.906 202.304 237.803 200.841 238.385C199.827 238.767 198.746 238.967 197.632 238.967C196.518 238.967 195.437 238.767 194.406 238.385C192.976 237.82 191.828 236.906 190.947 235.675C190.066 234.445 189.617 232.932 189.617 231.137C189.617 229.342 190.066 227.846 190.947 226.599C191.828 225.369 192.992 224.454 194.406 223.889C195.42 223.507 196.501 223.307 197.632 223.307C198.762 223.307 199.827 223.507 200.841 223.889C202.304 224.471 203.435 225.352 204.266 226.549L201.889 227.929C201.356 227.264 200.691 226.782 199.86 226.449C199.161 226.183 198.413 226.05 197.632 226.05C196.85 226.05 196.102 226.183 195.403 226.449C194.489 226.815 193.757 227.397 193.192 228.195C192.626 228.993 192.344 229.99 192.344 231.154C192.344 232.317 192.626 233.315 193.192 234.113C193.757 234.911 194.489 235.493 195.403 235.858C196.102 236.124 196.85 236.257 197.648 236.257C198.446 236.257 199.178 236.124 199.86 235.858C200.691 235.526 201.356 235.027 201.889 234.379V234.346Z" fill="white"/>
<path fill-rule="evenodd" clip-rule="evenodd" d="M211.067 228.444V239H208.34V224.621C208.34 224.238 208.473 223.906 208.739 223.64C209.005 223.374 209.321 223.241 209.72 223.241C210.186 223.241 210.552 223.44 210.818 223.823L218.949 233.78V223.224H221.693V237.604H221.676C221.676 238.036 221.51 238.385 221.178 238.668C220.895 238.9 220.562 239.017 220.18 238.967C219.797 238.934 219.498 238.767 219.265 238.485L211.067 228.427V228.444Z" fill="white"/>
<path fill-rule="evenodd" clip-rule="evenodd" d="M236.259 235.825C237.174 235.459 237.905 234.878 238.471 234.08C239.036 233.282 239.319 232.284 239.319 231.121C239.319 230.323 239.186 229.608 238.903 228.96C238.62 228.311 238.254 227.796 237.806 227.38C237.357 226.981 236.841 226.649 236.259 226.416C235.561 226.15 234.812 226.017 234.014 226.017C233.216 226.017 232.484 226.15 231.803 226.416C230.888 226.782 230.156 227.364 229.591 228.162C229.026 228.96 228.743 229.957 228.743 231.121C228.743 232.284 229.026 233.282 229.591 234.08C230.156 234.878 230.888 235.459 231.803 235.825C232.501 236.091 233.249 236.224 234.031 236.224C234.812 236.224 235.561 236.091 236.259 235.825ZM237.257 223.873C238.687 224.438 239.834 225.352 240.716 226.582C241.597 227.812 242.046 229.325 242.046 231.121C242.046 232.916 241.597 234.412 240.716 235.659C239.834 236.889 238.67 237.803 237.257 238.369C236.242 238.751 235.162 238.95 234.031 238.95C232.9 238.95 231.836 238.751 230.805 238.369C229.375 237.803 228.227 236.889 227.346 235.659C226.465 234.429 226.016 232.916 226.016 231.121C226.016 229.325 226.465 227.829 227.346 226.582C228.227 225.352 229.391 224.438 230.805 223.873C231.819 223.49 232.9 223.291 234.031 223.291C235.162 223.291 236.226 223.49 237.257 223.873Z" fill="white"/>
<path fill-rule="evenodd" clip-rule="evenodd" d="M246.387 224.621V223.241H249.114V236.274H257.528V239H247.767C247.385 239 247.052 238.867 246.786 238.601C246.52 238.335 246.387 238.019 246.387 237.62V224.621Z" fill="white"/>
<path fill-rule="evenodd" clip-rule="evenodd" d="M18.7238 177.509C17.8425 178.39 17.3936 179.42 17.3936 180.601C17.3936 181.781 17.8425 182.812 18.7238 183.693L28.7509 193.634C30.4803 195.363 32.5422 196.21 34.9368 196.21H68.4601C68.8758 196.21 69.1585 196.393 69.2749 196.759C69.4079 197.125 69.3414 197.441 69.0754 197.706L63.7542 203.026C63.0724 203.708 62.2576 204.04 61.3264 204.04H20.7525C18.7737 204.04 16.8614 203.658 15.0323 202.91C13.2031 202.145 11.6068 201.064 10.2599 199.651L3.05967 192.52C2.06195 191.473 1.31366 190.309 0.781546 189.029C0.266058 187.749 0 186.452 0 185.106C0 183.759 0.266058 182.462 0.781546 181.149C1.29703 179.836 2.06195 178.672 3.05967 177.625L11.5236 169.247C12.9371 167.834 14.5334 166.753 16.346 165.988C18.1418 165.224 20.0375 164.858 22.0329 164.858H61.2765C62.2742 164.858 63.1057 165.19 63.7875 165.872L69.1086 171.192C69.3747 171.458 69.4412 171.773 69.3082 172.139C69.1751 172.505 68.9091 172.688 68.4934 172.688L25.5582 172.771C24.1448 172.771 22.9475 173.27 21.9498 174.267L18.7405 177.475L18.7238 177.509Z" fill="white"/>
<path fill-rule="evenodd" clip-rule="evenodd" d="M144.685 164.891C145.267 164.891 145.766 165.107 146.215 165.556C146.664 166.005 146.88 166.504 146.88 167.085V187.765C146.88 189.494 146.548 191.157 145.866 192.786C145.184 194.398 144.253 195.811 143.039 197.008L139.83 200.217C138.632 201.414 137.219 202.361 135.606 203.043C133.993 203.724 132.313 204.057 130.584 204.057H92.8205C91.0911 204.057 89.4282 203.724 87.7986 203.043C86.1857 202.361 84.7722 201.43 83.575 200.217L80.3656 197.008C79.1684 195.811 78.2205 194.398 77.5388 192.786C76.857 191.173 76.5244 189.494 76.5244 187.765V167.085C76.5244 166.504 76.7406 166.005 77.1896 165.556C77.6385 165.107 78.1374 164.891 78.7194 164.891H90.8583C91.4902 164.891 92.0057 165.107 92.4214 165.556C92.8371 166.005 93.0533 166.504 93.0533 167.085V190.508C93.0533 191.755 93.5023 192.786 94.3836 193.567L95.7139 194.98C96.5453 195.811 97.5596 196.227 98.7735 196.227H124.631C125.828 196.227 126.843 195.811 127.691 194.98L129.021 193.567C129.902 192.786 130.351 191.772 130.351 190.508V167.085C130.351 166.504 130.567 166.005 130.983 165.556C131.399 165.107 131.931 164.891 132.546 164.891H144.685Z" fill="white"/>
<path fill-rule="evenodd" clip-rule="evenodd" d="M200.858 178.207C201.49 177.625 201.49 177.026 200.858 176.411L198.281 173.835C197.549 173.103 196.668 172.738 195.62 172.738H173.77C173.504 172.738 173.288 172.837 173.105 173.004C172.922 173.186 172.839 173.402 172.839 173.668V195.279C172.839 195.545 172.939 195.761 173.105 195.944C173.288 196.127 173.504 196.21 173.77 196.21H204.799C205.431 196.21 205.98 195.978 206.445 195.512L207.776 194.182C208.141 193.866 208.324 193.484 208.324 193.002C208.324 192.52 208.141 192.137 207.776 191.822L205.431 189.478C204.699 188.746 203.785 188.381 202.687 188.381H189.833C188.786 188.381 187.954 188.015 187.322 187.283L182.001 182.03C181.735 181.764 181.669 181.448 181.802 181.083C181.935 180.717 182.201 180.534 182.616 180.534H197.183C198.131 180.534 198.929 180.202 199.611 179.52L200.858 178.19V178.207ZM223.107 200.998C221.078 203.026 218.584 204.057 215.658 204.057H158.472C157.89 204.057 157.391 203.841 156.942 203.392C156.493 202.943 156.277 202.444 156.277 201.862V167.085C156.277 166.504 156.493 166.005 156.942 165.556C157.391 165.107 157.89 164.891 158.472 164.891H207.36C210.12 164.891 212.481 165.855 214.41 167.784L216.373 169.745C217.204 170.626 217.62 171.657 217.62 172.804C217.62 173.951 217.204 174.965 216.373 175.863L211.667 180.567H214.56C217.32 180.567 219.682 181.532 221.611 183.46L226.001 187.849C227.414 189.311 228.112 191.04 228.112 193.019C228.112 194.997 227.381 196.726 225.917 198.189L223.091 201.015L223.107 200.998Z" fill="white"/>
<path fill-rule="evenodd" clip-rule="evenodd" d="M252.805 188.397C252.123 188.397 251.79 188.713 251.79 189.345V195.213C251.79 195.845 252.123 196.161 252.805 196.161H298.001C298.417 196.161 298.7 196.36 298.816 196.743C298.949 197.141 298.882 197.457 298.616 197.723L293.062 203.209C292.597 203.725 291.965 203.99 291.183 203.99L237.44 204.074C236.858 204.074 236.359 203.857 235.91 203.409C235.461 202.96 235.245 202.461 235.245 201.879V167.102C235.245 166.52 235.461 166.022 235.91 165.573C236.359 165.124 236.858 164.908 237.44 164.908H291.267C291.998 164.908 292.63 165.174 293.146 165.689L298.7 171.175C298.966 171.441 299.032 171.757 298.899 172.156C298.766 172.555 298.5 172.738 298.084 172.738H252.805C252.123 172.738 251.79 173.054 251.79 173.685V179.554C251.79 180.185 252.123 180.501 252.805 180.501H279.36C279.776 180.501 280.059 180.684 280.175 181.05C280.308 181.415 280.242 181.731 279.976 181.997L274.422 187.633C273.906 188.098 273.274 188.331 272.543 188.331L252.805 188.414V188.397Z" fill="white"/>
<path fill-rule="evenodd" clip-rule="evenodd" d="M338.826 204.057C337.313 204.057 335.817 203.89 334.353 203.541C332.89 203.209 331.41 202.278 329.88 200.765L320.485 191.373C319.171 190.06 317.841 188.713 316.444 187.3C315.064 185.887 313.7 184.524 312.37 183.194C311.04 181.864 309.743 180.567 308.496 179.321L305.12 175.946C304.239 175.065 303.79 174.001 303.79 172.771C303.79 171.541 304.239 170.493 305.12 169.596L307.697 166.936C308.379 166.304 309.144 165.805 310.009 165.44C310.874 165.074 311.772 164.891 312.719 164.891H338.178C338.593 164.891 338.876 165.074 338.993 165.44C339.126 165.805 339.059 166.121 338.793 166.387L333.472 171.79C332.69 172.472 331.859 172.804 330.961 172.804H326.189C325.773 172.804 325.49 172.987 325.374 173.353C325.241 173.718 325.307 174.034 325.573 174.3L342.102 190.824C342.568 191.19 342.983 191.373 343.349 191.373C343.815 191.373 344.231 191.19 344.596 190.824L369.506 165.922C370.288 165.24 371.119 164.908 372.017 164.908H381.495C381.911 164.908 382.194 165.091 382.31 165.456C382.443 165.822 382.377 166.138 382.111 166.404L347.723 200.782C346.209 202.295 344.713 203.226 343.25 203.558C341.786 203.89 340.306 204.073 338.776 204.073L338.826 204.057Z" fill="white"/>
<path fill-rule="evenodd" clip-rule="evenodd" d="M388.727 167.085C388.727 166.504 388.943 166.005 389.392 165.556C389.841 165.107 390.34 164.891 390.922 164.891H403.061C403.693 164.891 404.208 165.107 404.624 165.556C405.04 166.005 405.256 166.504 405.256 167.085V201.862C405.256 202.444 405.04 202.943 404.624 203.392C404.208 203.841 403.676 204.057 403.061 204.057H390.922C390.34 204.057 389.841 203.841 389.392 203.392C388.943 202.943 388.727 202.444 388.727 201.862V167.085Z" fill="white"/>
<path fill-rule="evenodd" clip-rule="evenodd" d="M418.876 169.214C420.29 167.85 421.886 166.803 423.699 166.038C425.495 165.274 427.39 164.908 429.386 164.908H465.586C466.468 164.908 467.316 165.24 468.097 165.922L473.352 171.242C473.668 171.508 473.751 171.823 473.618 172.222C473.485 172.621 473.219 172.804 472.803 172.804H433.011C432.179 172.804 431.514 173.07 431.049 173.586L430.034 174.6C429.569 175.065 429.569 175.564 430.034 176.096L433.244 179.304C434.191 180.135 435.222 180.551 436.37 180.551H470.059C472.67 180.551 474.965 181.499 476.96 183.377L478.922 185.405C479.654 186.087 480.186 186.851 480.535 187.716C480.868 188.58 481.051 189.461 481.051 190.376C481.051 191.29 480.885 192.171 480.535 193.035C480.203 193.9 479.654 194.698 478.922 195.429L474.532 199.818C471.706 202.644 468.313 204.04 464.356 204.04H413.821C413.406 204.04 413.123 203.857 413.007 203.492C412.874 203.126 412.94 202.81 413.206 202.544L418.461 197.225C419.242 196.543 420.074 196.211 420.972 196.211H460.448C461.23 196.211 461.878 195.945 462.41 195.429L463.425 194.332C463.94 193.867 463.94 193.368 463.425 192.836L460.215 189.628C459.384 188.796 458.353 188.381 457.156 188.381H423.233C421.919 188.381 420.672 188.131 419.475 187.633C418.278 187.134 417.23 186.419 416.349 185.472L414.553 183.676C413.871 182.995 413.356 182.213 412.99 181.332C412.624 180.451 412.441 179.554 412.441 178.672C412.441 177.791 412.624 176.894 412.99 176.013C413.356 175.132 413.871 174.334 414.553 173.669L418.943 169.197L418.876 169.214Z" fill="white"/>
<path fill-rule="evenodd" clip-rule="evenodd" d="M158.471 223.258H171.823V225.967H166.502V239H163.792V225.967H158.471V223.258Z" fill="white"/>
<path fill-rule="evenodd" clip-rule="evenodd" d="M176.929 223.258H186.69V225.984H178.276V229.757H184.595V232.5H178.276V236.274H186.69V239H176.929C176.547 239 176.214 238.867 175.948 238.601C175.682 238.335 175.549 238.003 175.549 237.637V224.637C175.549 224.255 175.682 223.922 175.948 223.656C176.214 223.391 176.53 223.258 176.929 223.258Z" fill="white"/>
<path fill-rule="evenodd" clip-rule="evenodd" d="M270.115 235.825C271.03 235.459 271.761 234.877 272.327 234.08C272.892 233.282 273.175 232.284 273.175 231.121C273.175 230.323 273.042 229.608 272.759 228.959C272.476 228.311 272.11 227.796 271.661 227.38C271.213 226.981 270.697 226.649 270.115 226.416C269.417 226.15 268.668 226.017 267.87 226.017C267.072 226.017 266.34 226.15 265.659 226.416C264.744 226.782 264.012 227.364 263.447 228.161C262.882 228.959 262.599 229.957 262.599 231.121C262.599 232.284 262.882 233.282 263.447 234.08C264.012 234.877 264.744 235.459 265.659 235.825C266.357 236.091 267.105 236.224 267.887 236.224C268.668 236.224 269.417 236.091 270.115 235.825ZM271.096 223.873C272.526 224.438 273.674 225.352 274.555 226.582C275.436 227.812 275.885 229.325 275.885 231.121C275.885 232.916 275.436 234.412 274.555 235.659C273.674 236.889 272.51 237.803 271.096 238.368C270.082 238.751 269.001 238.95 267.87 238.95C266.739 238.95 265.675 238.751 264.644 238.368C263.214 237.803 262.067 236.889 261.185 235.659C260.304 234.429 259.855 232.916 259.855 231.121C259.855 229.325 260.304 227.829 261.185 226.582C262.067 225.352 263.231 224.438 264.644 223.873C265.659 223.49 266.739 223.291 267.87 223.291C269.001 223.291 270.065 223.49 271.096 223.873Z" fill="white"/>
<path fill-rule="evenodd" clip-rule="evenodd" d="M286.928 223.257H294.328V225.984H286.928C285.864 225.984 284.966 226.25 284.234 226.798C283.502 227.347 282.97 228.062 282.638 228.943C282.388 229.624 282.255 230.339 282.255 231.12C282.255 231.902 282.388 232.633 282.638 233.298C282.97 234.179 283.502 234.894 284.234 235.443C284.966 235.991 285.864 236.257 286.928 236.257H291.6V232.484H285.548V229.741H292.947C293.33 229.741 293.646 229.874 293.912 230.14C294.178 230.406 294.311 230.738 294.311 231.104V237.604C294.311 237.986 294.178 238.302 293.912 238.568C293.646 238.834 293.313 238.967 292.947 238.967H286.911C285.215 238.967 283.785 238.535 282.621 237.67C281.457 236.806 280.609 235.659 280.06 234.246C279.678 233.248 279.495 232.184 279.495 231.104C279.495 230.023 279.678 228.959 280.06 227.962C280.592 226.549 281.457 225.418 282.621 224.537C283.785 223.673 285.215 223.241 286.911 223.241L286.928 223.257Z" fill="white"/>
<path d="M301.925 223.258H299.198V239H301.925V223.258Z" fill="white"/>
<path fill-rule="evenodd" clip-rule="evenodd" d="M311.855 233.016H317.758L314.814 227.497L311.871 233.016H311.855ZM305.602 239L313.617 223.972C313.8 223.64 314.066 223.424 314.432 223.324C314.798 223.224 315.13 223.241 315.463 223.407C315.696 223.54 315.895 223.74 316.028 223.989C320.668 232.667 323.328 237.67 324.01 239H320.95L319.221 235.742H310.424L308.695 239H305.619H305.602Z" fill="white"/>
<path fill-rule="evenodd" clip-rule="evenodd" d="M201.889 234.345L204.266 235.725C203.435 236.905 202.304 237.803 200.841 238.385C199.827 238.767 198.746 238.967 197.632 238.967C196.518 238.967 195.437 238.767 194.406 238.385C192.976 237.82 191.828 236.906 190.947 235.675C190.066 234.445 189.617 232.932 189.617 231.137C189.617 229.342 190.066 227.846 190.947 226.599C191.828 225.369 192.992 224.454 194.406 223.889C195.42 223.507 196.501 223.307 197.632 223.307C198.762 223.307 199.827 223.507 200.841 223.889C202.304 224.471 203.435 225.352 204.266 226.549L201.889 227.929C201.356 227.264 200.691 226.782 199.86 226.449C199.161 226.183 198.413 226.05 197.632 226.05C196.85 226.05 196.102 226.183 195.403 226.449C194.489 226.815 193.757 227.397 193.192 228.195C192.626 228.993 192.344 229.99 192.344 231.154C192.344 232.317 192.626 233.315 193.192 234.113C193.757 234.911 194.489 235.492 195.403 235.858C196.102 236.124 196.85 236.257 197.648 236.257C198.446 236.257 199.178 236.124 199.86 235.858C200.691 235.526 201.356 235.027 201.889 234.379V234.345Z" fill="white"/>
<path fill-rule="evenodd" clip-rule="evenodd" d="M211.067 228.444V239H208.34V224.621C208.34 224.238 208.473 223.906 208.739 223.64C209.005 223.374 209.321 223.241 209.72 223.241C210.186 223.241 210.552 223.44 210.818 223.823L218.949 233.78V223.224H221.693V237.604H221.676C221.676 238.036 221.51 238.385 221.178 238.668C220.895 238.9 220.562 239.017 220.18 238.967C219.797 238.934 219.498 238.767 219.265 238.485L211.067 228.427V228.444Z" fill="white"/>
<path fill-rule="evenodd" clip-rule="evenodd" d="M236.259 235.825C237.174 235.459 237.905 234.877 238.471 234.08C239.036 233.282 239.319 232.284 239.319 231.121C239.319 230.323 239.186 229.608 238.903 228.959C238.62 228.311 238.254 227.796 237.806 227.38C237.357 226.981 236.841 226.649 236.259 226.416C235.561 226.15 234.812 226.017 234.014 226.017C233.216 226.017 232.484 226.15 231.803 226.416C230.888 226.782 230.156 227.364 229.591 228.161C229.026 228.959 228.743 229.957 228.743 231.121C228.743 232.284 229.026 233.282 229.591 234.08C230.156 234.877 230.888 235.459 231.803 235.825C232.501 236.091 233.249 236.224 234.031 236.224C234.812 236.224 235.561 236.091 236.259 235.825ZM237.257 223.873C238.687 224.438 239.834 225.352 240.716 226.582C241.597 227.812 242.046 229.325 242.046 231.121C242.046 232.916 241.597 234.412 240.716 235.659C239.834 236.889 238.67 237.803 237.257 238.368C236.242 238.751 235.162 238.95 234.031 238.95C232.9 238.95 231.836 238.751 230.805 238.368C229.375 237.803 228.227 236.889 227.346 235.659C226.465 234.429 226.016 232.916 226.016 231.121C226.016 229.325 226.465 227.829 227.346 226.582C228.227 225.352 229.391 224.438 230.805 223.873C231.819 223.49 232.9 223.291 234.031 223.291C235.162 223.291 236.226 223.49 237.257 223.873Z" fill="white"/>
<path fill-rule="evenodd" clip-rule="evenodd" d="M246.387 224.62V223.241H249.114V236.274H257.528V239H247.767C247.385 239 247.052 238.867 246.786 238.601C246.52 238.335 246.387 238.019 246.387 237.62V224.62Z" fill="white"/>
<path fill-rule="evenodd" clip-rule="evenodd" d="M252.406 28.9751L179.539 71.0332C177.561 72.1802 176.164 73.959 175.465 75.9705C173.852 80.1264 175.465 84.9473 179.423 87.2414L256.48 131.727C258.093 132.658 259.889 133.04 261.618 132.94C266.657 132.924 270.748 128.817 270.748 123.78V9.15952C270.748 4.08927 266.64 -0.000183105 261.585 -0.000183105C256.53 -0.000183105 252.423 4.10589 252.423 9.15952V28.9584L252.406 28.9751ZM252.406 108.187L202.121 79.1622L252.406 50.1371V108.187Z" fill="#008644"/>
</g>
<defs>
<clipPath id="clip0_451_32">
<rect width="481" height="239" fill="white"/>
</clipPath>
</defs>
</svg>
