<svg width="842" height="249" viewBox="0 0 842 249" fill="none" xmlns="http://www.w3.org/2000/svg">
<g filter="url(#filter0_d_422_669)">
<rect x="9" y="0.213379" width="824" height="85.8333" fill="url(#paint0_linear_422_669)" shape-rendering="crispEdges"/>
<rect x="10.0449" y="1.25832" width="821.91" height="83.7435" stroke="url(#paint1_linear_422_669)" stroke-width="2.08988" shape-rendering="crispEdges"/>
<path d="M41.345 31.1499L46.105 26.3049C49.165 23.3299 53.245 21.6299 57.495 21.6299H96.765C97.785 21.6299 98.72 22.0549 99.485 22.7349L105.18 28.5149C105.86 29.1099 105.435 30.2149 104.585 30.2149H61.405C60.64 30.2149 59.79 30.4699 59.28 31.0649L58.175 32.1699C57.75 32.5949 57.75 33.2749 58.175 33.7849L61.66 37.2699C62.595 38.1199 63.785 38.6299 65.06 38.6299H101.61C104.415 38.6299 107.05 39.7349 109.09 41.6899L111.215 43.8999C114.275 46.8749 114.275 51.7199 111.215 54.7799L106.455 59.5399C103.48 62.5149 99.57 64.1299 95.405 64.1299H40.58C39.73 64.1299 39.305 63.1099 39.9 62.5149L45.595 56.7349C46.36 56.0549 47.295 55.6299 48.315 55.6299H91.155C91.92 55.6299 92.685 55.3749 93.28 54.7799L94.385 53.5899C94.895 53.1649 94.895 52.4849 94.385 51.9749L90.9 48.4899C90.05 47.6399 88.775 47.1299 87.585 47.1299H50.78C47.975 47.1299 45.255 46.0249 43.3 43.9849L41.345 42.0299C38.285 39.0549 38.285 34.1249 41.345 31.1499ZM157.155 21.6299C160.3 21.6299 162.51 21.9699 165.74 25.1999L202.97 62.5149C203.565 63.1099 203.14 64.1299 202.29 64.1299H183.93C181.805 64.1299 179.68 63.2799 178.15 61.7499L152.82 36.4199C152.48 35.9949 151.885 35.9949 151.46 36.4199L126.13 61.7499C124.6 63.2799 122.56 64.1299 120.35 64.1299H111.85C111 64.1299 110.575 63.1099 111.17 62.5149L148.57 25.1999C151.715 21.9699 153.925 21.6299 157.155 21.6299ZM224.059 64.1299C220.829 64.1299 218.619 63.7899 215.474 60.5599L178.159 23.2449C177.564 22.6499 177.989 21.6299 178.839 21.6299H197.199C199.409 21.6299 201.449 22.4799 202.979 24.0099L228.309 49.3399C228.649 49.7649 229.244 49.7649 229.669 49.3399L254.999 24.0099C256.529 22.4799 258.654 21.6299 260.779 21.6299H269.279C270.129 21.6299 270.554 22.6499 269.959 23.2449L232.644 60.5599C229.414 63.7899 227.204 64.1299 224.059 64.1299ZM317.638 47.0449L296.218 47.1299C295.623 47.1299 295.113 47.5549 295.113 48.1499V54.5249C295.113 55.1199 295.623 55.5449 296.218 55.5449H345.263C346.113 55.5449 346.538 56.6499 345.943 57.2449L339.908 63.1949C339.398 63.7899 338.633 64.0449 337.868 64.0449L279.558 64.1299C278.283 64.1299 277.178 63.0249 277.178 61.7499V24.0099C277.178 22.7349 278.283 21.6299 279.558 21.6299H337.953C338.718 21.6299 339.483 21.9699 339.993 22.4799L346.028 28.4299C346.623 29.0249 346.198 30.1299 345.348 30.1299H296.218C295.623 30.1299 295.113 30.5549 295.113 31.1499V37.5249C295.113 38.1199 295.623 38.5449 296.218 38.5449H325.033C325.883 38.5449 326.308 39.5649 325.713 40.1599L319.678 46.2799C319.083 46.7899 318.403 47.0449 317.638 47.0449ZM464.773 22.4799L470.808 28.5149C471.403 29.1099 470.978 30.1299 470.128 30.1299H441.058C440.463 30.1299 440.038 30.5549 440.038 31.1499V61.7499C440.038 63.0249 438.933 64.1299 437.658 64.1299H424.483C423.123 64.1299 422.103 63.0249 422.103 61.7499V31.1499C422.103 30.5549 421.593 30.1299 420.998 30.1299H399.408C398.388 30.1299 397.368 29.7049 396.688 29.0249L390.908 23.2449C390.313 22.6499 390.738 21.6299 391.588 21.6299H462.818C463.583 21.6299 464.263 21.9699 464.773 22.4799ZM495.992 48.1499V61.7499C495.992 63.0249 494.972 64.1299 493.612 64.1299H480.437C479.077 64.1299 478.057 63.0249 478.057 61.7499V24.0099C478.057 22.7349 479.077 21.6299 480.437 21.6299H493.612C494.972 21.6299 495.992 22.7349 495.992 24.0099V37.6099C495.992 38.2049 496.502 38.6299 497.097 38.6299H532.032C532.627 38.6299 533.052 38.2049 533.052 37.6099V24.0099C533.052 22.7349 534.157 21.6299 535.432 21.6299H548.607C549.967 21.6299 550.987 22.7349 550.987 24.0099V61.7499C550.987 63.0249 549.967 64.1299 548.607 64.1299H535.432C534.157 64.1299 533.052 63.0249 533.052 61.7499V48.1499C533.052 47.5549 532.627 47.1299 532.032 47.1299H497.097C496.502 47.1299 495.992 47.5549 495.992 48.1499ZM601.857 47.0449L580.437 47.1299C579.842 47.1299 579.332 47.5549 579.332 48.1499V54.5249C579.332 55.1199 579.842 55.5449 580.437 55.5449H629.482C630.332 55.5449 630.757 56.6499 630.162 57.2449L624.127 63.1949C623.617 63.7899 622.852 64.0449 622.087 64.0449L563.777 64.1299C562.502 64.1299 561.397 63.0249 561.397 61.7499V24.0099C561.397 22.7349 562.502 21.6299 563.777 21.6299H622.172C622.937 21.6299 623.702 21.9699 624.212 22.4799L630.247 28.4299C630.842 29.0249 630.417 30.1299 629.567 30.1299H580.437C579.842 30.1299 579.332 30.5549 579.332 31.1499V37.5249C579.332 38.1199 579.842 38.5449 580.437 38.5449H609.252C610.102 38.5449 610.527 39.5649 609.932 40.1599L603.897 46.2799C603.302 46.7899 602.622 47.0449 601.857 47.0449Z" fill="white"/>
</g>
<g filter="url(#filter1_d_422_669)">
<rect x="9" y="100.353" width="824" height="131.611" fill="url(#paint2_linear_422_669)" shape-rendering="crispEdges"/>
<rect x="10.0449" y="101.397" width="821.91" height="129.521" stroke="url(#paint3_linear_422_669)" stroke-width="2.08988" shape-rendering="crispEdges"/>
<path d="M111.408 140.858H71.676C70.644 140.858 69.612 141.89 69.612 142.922V190.394C69.612 191.426 70.644 192.458 71.676 192.458H152.86C154.236 192.458 155.612 191.942 156.472 190.91L158.88 188.674C160.772 186.782 160.772 183.686 158.88 181.794L122.244 145.33C119.492 142.406 115.536 140.858 111.408 140.858ZM188.636 187.47L176.08 200.026C169.888 206.218 161.632 209.658 152.86 209.658H38.136C35.556 209.658 33.32 207.422 33.32 204.842V128.474C33.32 125.894 35.556 123.658 38.136 123.658H135.66C144.432 123.658 152.688 127.098 158.88 133.29L188.636 163.046C195.344 169.754 195.344 180.762 188.636 187.47ZM282.266 123.658C288.63 123.658 293.102 124.346 299.638 130.882L374.974 206.39C376.178 207.594 375.318 209.658 373.598 209.658H336.446C332.146 209.658 327.846 207.938 324.75 204.842L273.494 153.586C272.806 152.726 271.602 152.726 270.742 153.586L219.486 204.842C216.39 207.938 212.262 209.658 207.79 209.658H190.59C188.87 209.658 188.01 207.594 189.214 206.39L264.894 130.882C271.258 124.346 275.73 123.658 282.266 123.658ZM488.01 125.378L500.222 137.59C501.426 138.794 500.566 140.858 498.846 140.858H440.022C438.818 140.858 437.958 141.718 437.958 142.922V204.842C437.958 207.422 435.722 209.658 433.142 209.658H406.482C403.73 209.658 401.666 207.422 401.666 204.842V142.922C401.666 141.718 400.634 140.858 399.43 140.858H355.742C353.678 140.858 351.614 139.998 350.238 138.622L338.542 126.926C337.338 125.722 338.198 123.658 339.918 123.658H484.054C485.602 123.658 486.978 124.346 488.01 125.378ZM596.762 175.086L553.418 175.258C552.214 175.258 551.182 176.118 551.182 177.322V190.222C551.182 191.426 552.214 192.286 553.418 192.286H652.662C654.382 192.286 655.242 194.522 654.038 195.726L641.826 207.766C640.794 208.97 639.246 209.486 637.698 209.486L519.706 209.658C517.126 209.658 514.89 207.422 514.89 204.842V128.474C514.89 125.894 517.126 123.658 519.706 123.658H637.87C639.418 123.658 640.966 124.346 641.998 125.378L654.21 137.418C655.414 138.622 654.554 140.858 652.834 140.858H553.418C552.214 140.858 551.182 141.718 551.182 142.922V155.822C551.182 157.026 552.214 157.886 553.418 157.886H611.726C613.446 157.886 614.306 159.95 613.102 161.154L600.89 173.538C599.686 174.57 598.31 175.086 596.762 175.086Z" fill="white"/>
</g>
<defs>
<filter id="filter0_d_422_669" x="0.640495" y="0.213379" width="840.719" height="102.553" filterUnits="userSpaceOnUse" color-interpolation-filters="sRGB">
<feFlood flood-opacity="0" result="BackgroundImageFix"/>
<feColorMatrix in="SourceAlpha" type="matrix" values="0 0 0 0 0 0 0 0 0 0 0 0 0 0 0 0 0 0 127 0" result="hardAlpha"/>
<feOffset dy="8.3595"/>
<feGaussianBlur stdDeviation="4.17975"/>
<feComposite in2="hardAlpha" operator="out"/>
<feColorMatrix type="matrix" values="0 0 0 0 0 0 0 0 0 0 0 0 0 0 0 0 0 0 0.25 0"/>
<feBlend mode="normal" in2="BackgroundImageFix" result="effect1_dropShadow_422_669"/>
<feBlend mode="normal" in="SourceGraphic" in2="effect1_dropShadow_422_669" result="shape"/>
</filter>
<filter id="filter1_d_422_669" x="0.640495" y="100.353" width="840.719" height="148.33" filterUnits="userSpaceOnUse" color-interpolation-filters="sRGB">
<feFlood flood-opacity="0" result="BackgroundImageFix"/>
<feColorMatrix in="SourceAlpha" type="matrix" values="0 0 0 0 0 0 0 0 0 0 0 0 0 0 0 0 0 0 127 0" result="hardAlpha"/>
<feOffset dy="8.3595"/>
<feGaussianBlur stdDeviation="4.17975"/>
<feComposite in2="hardAlpha" operator="out"/>
<feColorMatrix type="matrix" values="0 0 0 0 0 0 0 0 0 0 0 0 0 0 0 0 0 0 0.25 0"/>
<feBlend mode="normal" in2="BackgroundImageFix" result="effect1_dropShadow_422_669"/>
<feBlend mode="normal" in="SourceGraphic" in2="effect1_dropShadow_422_669" result="shape"/>
</filter>
<linearGradient id="paint0_linear_422_669" x1="9" y1="43.1039" x2="833" y2="43.6509" gradientUnits="userSpaceOnUse">
<stop stop-color="#008644"/>
<stop offset="0.377715" stop-color="#00FF81" stop-opacity="0.5"/>
<stop offset="0.865909" stop-color="#00FC80" stop-opacity="0"/>
</linearGradient>
<linearGradient id="paint1_linear_422_669" x1="9" y1="43.13" x2="833" y2="43.13" gradientUnits="userSpaceOnUse">
<stop stop-color="white"/>
<stop offset="0.315" stop-color="white" stop-opacity="0"/>
</linearGradient>
<linearGradient id="paint2_linear_422_669" x1="9" y1="166.118" x2="833" y2="166.475" gradientUnits="userSpaceOnUse">
<stop stop-color="#008644"/>
<stop offset="0.377715" stop-color="#00FF81" stop-opacity="0.5"/>
<stop offset="0.865909" stop-color="#00FC80" stop-opacity="0"/>
</linearGradient>
<linearGradient id="paint3_linear_422_669" x1="9" y1="166.158" x2="833" y2="166.158" gradientUnits="userSpaceOnUse">
<stop stop-color="white"/>
<stop offset="0.315" stop-color="white" stop-opacity="0"/>
</linearGradient>
</defs>
</svg>
